<svg xmlns="http://www.w3.org/2000/svg" viewBox="0 0 434.15 82.19">
    <defs>
        <style>.cls-1{fill:#00aeff;}.cls-2{fill:#fbab1c;}</style>
    </defs>
    <title>logo</title>
    <g id="Слой_2">
        <g id="Layer_1">
            <path class="cls-1"
                  d="M253.21,8.63l-1.47-.77a1.54,1.54,0,0,1-.76-1A9.42,9.42,0,0,0,243.59.25c-8.9-1.69-13.32,5.54-16.65,11.54-6.28,11.33-10.67,10.61-17.32,10.09,0,0,5.55,7.89,15,9.68,6.41,1.2,14.88.55,21.67-10.56a45.68,45.68,0,0,0,4.2-8.07,1.49,1.49,0,0,1,.81-.86l1.79-.75c3.17-1.1,4.4-.69.11-2.69m-8.81,0a1.84,1.84,0,1,1,1.52-2.11,1.85,1.85,0,0,1-1.52,2.11"/>
            <path class="cls-1"
                  d="M0,22.87a4.08,4.08,0,0,1,1.36-3.39,5.84,5.84,0,0,1,3.81-1.1,9.53,9.53,0,0,1,2.8.38l.66.2a1.46,1.46,0,0,1,1,1.41V43.6h0A17.2,17.2,0,0,1,15.51,39a18.57,18.57,0,0,1,8.56-1.9,22,22,0,0,1,8.6,1.65,20.6,20.6,0,0,1,6.87,4.66,21.71,21.71,0,0,1,4.57,7.12,24,24,0,0,1,1.66,9,23.59,23.59,0,0,1-1.7,9,20.65,20.65,0,0,1-4.75,7.12,22.15,22.15,0,0,1-7.24,4.66A24.33,24.33,0,0,1,22.88,82a26.85,26.85,0,0,1-9.19-1.52,19.56,19.56,0,0,1-7.25-4.58A20.74,20.74,0,0,1,1.7,68.29,30.69,30.69,0,0,1,0,57.53ZM22.71,73.29A13,13,0,0,0,28,72.23a12.57,12.57,0,0,0,4.15-2.88A12.39,12.39,0,0,0,34.83,65a15.55,15.55,0,0,0,.94-5.47,15.88,15.88,0,0,0-.94-5.5,12.42,12.42,0,0,0-2.67-4.37A12.87,12.87,0,0,0,28,46.81a13,13,0,0,0-5.3-1.06,13.21,13.21,0,0,0-5.38,1.06,12.06,12.06,0,0,0-4.11,2.92,14,14,0,0,0-2.67,4.41,15,15,0,0,0-1,5.42,15.53,15.53,0,0,0,1,5.6,12.18,12.18,0,0,0,6.87,7.12,13.44,13.44,0,0,0,5.29,1"/>
            <path class="cls-1"
                  d="M54.41,22.87a4.08,4.08,0,0,1,1.36-3.39,5.84,5.84,0,0,1,3.81-1.1,9.53,9.53,0,0,1,2.8.38L63,19a1.46,1.46,0,0,1,1,1.41V80.82s0,0,0,0H54.42a0,0,0,0,1,0,0Z"/>
            <path class="cls-1"
                  d="M74.41,42.78a4.08,4.08,0,0,1,1.36-3.43,6.08,6.08,0,0,1,3.81-1.06,9.87,9.87,0,0,1,2.8.38l.66.21a1.46,1.46,0,0,1,1,1.41V61.51c0,3.85.91,6.77,2.72,8.78s4.57,3,8.3,3,6.5-1,8.31-3,2.71-4.93,2.71-8.78V42.78a4.1,4.1,0,0,1,1.35-3.43,6,6,0,0,1,3.73-1.06,10.1,10.1,0,0,1,2.88.38l.67.21a1.46,1.46,0,0,1,1,1.41V63.63a19.56,19.56,0,0,1-1.48,7.76,16,16,0,0,1-4.24,5.8,18.52,18.52,0,0,1-6.57,3.6,29.23,29.23,0,0,1-16.78,0,18.08,18.08,0,0,1-6.53-3.6,16.54,16.54,0,0,1-4.23-5.8,18.89,18.89,0,0,1-1.53-7.76Z"/>
            <path class="cls-1"
                  d="M162.9,76.44a1.47,1.47,0,0,1-.58,2l-.87.47a21.32,21.32,0,0,1-3.6,1.44,39.86,39.86,0,0,1-5,1.18,35.38,35.38,0,0,1-6.23.51,26.6,26.6,0,0,1-8.86-1.44,20.45,20.45,0,0,1-7.2-4.28,20.11,20.11,0,0,1-4.88-7,23.7,23.7,0,0,1-1.78-9.45,24,24,0,0,1,1.74-9.28,21.21,21.21,0,0,1,12.12-11.86,24.92,24.92,0,0,1,9.2-1.65,24.43,24.43,0,0,1,7.79,1.14,18,18,0,0,1,5.72,3A12.48,12.48,0,0,1,164,45.75a12.69,12.69,0,0,1,1.19,5.42,12.92,12.92,0,0,1-1.1,5.39,9.8,9.8,0,0,1-3.9,4.15,23.31,23.31,0,0,1-7.54,2.71,61.58,61.58,0,0,1-12,1c-1.13,0-2.19,0-3.18,0l-1.19,0a1.48,1.48,0,0,0-1.49,1.92,10.52,10.52,0,0,0,3.7,5q3.51,2.67,10,2.67a22.4,22.4,0,0,0,4.07-.34,23.24,23.24,0,0,0,5.89-1.87l1.57-.76ZM134,56a1.5,1.5,0,0,0,1.44,1.72l2.14,0h3.56a39.16,39.16,0,0,0,7.54-.59,15.43,15.43,0,0,0,4.49-1.53,4.73,4.73,0,0,0,2.12-2.12,6.16,6.16,0,0,0,.51-2.46,5.33,5.33,0,0,0-2.58-4.83,11.94,11.94,0,0,0-6.4-1.61,12.87,12.87,0,0,0-5.51,1.11,11.92,11.92,0,0,0-4,2.92,13.44,13.44,0,0,0-2.51,4.19A15.74,15.74,0,0,0,134,56"/>
            <path class="cls-1"
                  d="M171.36,22.87a4.11,4.11,0,0,1,1.36-3.39,5.86,5.86,0,0,1,3.81-1.1,9.53,9.53,0,0,1,2.8.38l.66.2a1.47,1.47,0,0,1,1,1.41V43.6h0a17.25,17.25,0,0,1,5.82-4.6,18.57,18.57,0,0,1,8.56-1.9A22.09,22.09,0,0,1,204,38.76a20.66,20.66,0,0,1,6.86,4.66,21.73,21.73,0,0,1,4.58,7.12,25.11,25.11,0,0,1,0,18,20.93,20.93,0,0,1-4.75,7.12,22.09,22.09,0,0,1-7.25,4.66A24.28,24.28,0,0,1,194.25,82a26.91,26.91,0,0,1-9.2-1.52,19.53,19.53,0,0,1-7.24-4.58,20.75,20.75,0,0,1-4.75-7.63,30.92,30.92,0,0,1-1.7-10.76Zm22.72,50.42a13,13,0,0,0,5.29-1.06A12.4,12.4,0,0,0,206.2,65a15.55,15.55,0,0,0,.93-5.47,15.88,15.88,0,0,0-.93-5.5,12.72,12.72,0,0,0-2.67-4.37,12.91,12.91,0,0,0-9.45-3.94,13.18,13.18,0,0,0-5.38,1.06,12.06,12.06,0,0,0-4.11,2.92,13.81,13.81,0,0,0-2.67,4.41,15,15,0,0,0-1,5.42,15.53,15.53,0,0,0,1,5.6,12.21,12.21,0,0,0,6.86,7.12,13.49,13.49,0,0,0,5.3,1"/>
            <path class="cls-1"
                  d="M225.77,42.78a4.11,4.11,0,0,1,1.36-3.43,6.08,6.08,0,0,1,3.81-1.06,9.87,9.87,0,0,1,2.8.38l.66.21a1.47,1.47,0,0,1,1,1.41V80.83h-9.67Z"/>
            <path class="cls-1"
                  d="M245.78,53.46q0-7.8,4.78-12.07t13.27-4.28a21.57,21.57,0,0,1,8.68,1.48c2.24,1,3.35,2.5,3.35,4.53a5.47,5.47,0,0,1-.8,2.8c-.18.29-.34.54-.49.76a1.45,1.45,0,0,1-1.74.54,25.68,25.68,0,0,0-2.65-.88,18.15,18.15,0,0,0-4.83-.59q-9.92,0-9.91,10.51V80.82a0,0,0,0,1,0,0h-9.63s0,0,0,0Z"/>
            <path class="cls-1"
                  d="M314.68,22.87A4.15,4.15,0,0,1,316,19.48a5.67,5.67,0,0,1,3.77-1.1,9.53,9.53,0,0,1,2.8.38l.66.2a1.47,1.47,0,0,1,1,1.41V57.53a30.43,30.43,0,0,1-1.73,10.76,21.28,21.28,0,0,1-4.79,7.63,19.65,19.65,0,0,1-7.21,4.58A26.28,26.28,0,0,1,301.45,82a24.32,24.32,0,0,1-9.19-1.69A22.2,22.2,0,0,1,285,75.67a21.15,21.15,0,0,1-4.78-7.12,23,23,0,0,1-1.74-9,24,24,0,0,1,1.65-9,21.73,21.73,0,0,1,4.58-7.12,20.56,20.56,0,0,1,6.86-4.66,22.08,22.08,0,0,1,8.6-1.65,18.78,18.78,0,0,1,8.65,1.9,17.25,17.25,0,0,1,5.82,4.6h0Zm0,36.69a15,15,0,0,0-1-5.42A14,14,0,0,0,311,49.73a12.06,12.06,0,0,0-4.11-2.92,13.86,13.86,0,0,0-10.63,0,12.81,12.81,0,0,0-4.11,2.88,12.42,12.42,0,0,0-2.67,4.37,15.65,15.65,0,0,0-.94,5.5,15.32,15.32,0,0,0,.94,5.47,12.52,12.52,0,0,0,6.78,7.2,12.88,12.88,0,0,0,5.33,1.06,13.49,13.49,0,0,0,5.3-1,12,12,0,0,0,4.11-2.8,12.93,12.93,0,0,0,2.67-4.32,15.53,15.53,0,0,0,1-5.6"/>
            <path class="cls-2"
                  d="M329.17,75.5a6.33,6.33,0,0,1,.51-2.54,6.44,6.44,0,0,1,3.52-3.48A6.62,6.62,0,0,1,340.54,71a6.28,6.28,0,0,1,1.77,4.48,6.67,6.67,0,0,1-.51,2.58,6.48,6.48,0,0,1-1.4,2.12,7,7,0,0,1-2.08,1.44,5.92,5.92,0,0,1-2.54.55,6.28,6.28,0,0,1-4.66-2,6.48,6.48,0,0,1-1.95-4.7"/>
            <path class="cls-2"
                  d="M385.62,76.53a1.47,1.47,0,0,1-.55,2c-.38.21-.79.42-1.23.64a27.82,27.82,0,0,1-3.39,1.35,29.52,29.52,0,0,1-4.33,1.06,32.07,32.07,0,0,1-5.46.42,27,27,0,0,1-8.9-1.44,20.84,20.84,0,0,1-7.29-4.28,20.31,20.31,0,0,1-5-7,23.73,23.73,0,0,1-1.82-9.58,24.72,24.72,0,0,1,1.78-9.66A20,20,0,0,1,354.39,43a20.89,20.89,0,0,1,7.41-4.36,27.86,27.86,0,0,1,9.2-1.48,32,32,0,0,1,7.07.67,18.65,18.65,0,0,1,4.75,1.7,7.19,7.19,0,0,1,2.63,2.29,4.74,4.74,0,0,1,.8,2.54,4.91,4.91,0,0,1-1.14,3.13,15,15,0,0,1-1.17,1.34,1.46,1.46,0,0,1-1.91.1,19.69,19.69,0,0,0-3.49-2,17.22,17.22,0,0,0-7.12-1.31,16.49,16.49,0,0,0-5.38.85A11.51,11.51,0,0,0,361.72,49a12.17,12.17,0,0,0-2.88,4.33,16.06,16.06,0,0,0-1.06,6.14,16.32,16.32,0,0,0,1.1,6.36,11.47,11.47,0,0,0,3.05,4.32,12.61,12.61,0,0,0,4.49,2.5,18.08,18.08,0,0,0,5.51.8,17.11,17.11,0,0,0,6.82-1.14c.92-.41,1.68-.76,2.28-1.06a1.48,1.48,0,0,1,2,.6Z"/>
            <path class="cls-2"
                  d="M389.45,81.57a1.49,1.49,0,0,1-1.17-2.41l.23-.28c1.12-1.38,2.48-3.06,4.1-5L398,67.33q2.94-3.57,6-7.17v0q-4.14-4.49-7.09-7.44c-2-2-3.57-3.63-4.8-5a22,22,0,0,1-2.74-3.53,5.79,5.79,0,0,1-.88-3,3.75,3.75,0,0,1,1.15-2.69,5.05,5.05,0,0,1,3.79-1.19,9.33,9.33,0,0,1,2.82.39c.53.17.94.31,1.22.42a1.36,1.36,0,0,1,.58.42c.29.35.77.89,1.42,1.63l3.08,3.49q1.81,2,3.84,4.4c1.35,1.59,2.69,3.11,4,4.57h0q1.66-2.1,3.38-4.13T417,44.76q1.41-1.73,2.43-2.91c.67-.8,1.1-1.31,1.27-1.55a11.15,11.15,0,0,1,2.83-2.24,7,7,0,0,1,3.35-.75,8.43,8.43,0,0,1,4.23,1c.33.19.63.37.89.55a1.47,1.47,0,0,1,.32,2.21L431,42.64c-1.09,1.27-2.37,2.76-3.84,4.5l-4.89,5.77c-1.79,2.11-3.63,4.29-5.5,6.52,0,0,0,0,0,0q3.17,3.69,6.25,7.22l5.68,6.52q2.61,3,4.5,5.21l.63.73a1.49,1.49,0,0,1-1.14,2.44h-9.32c-1.36-1.59-3.1-3.63-5.25-6.13s-4.71-5.41-7.7-8.76h0q-4,4.74-7.26,8.75t-4.89,6.12h-8.76Z"/>
        </g>
    </g>
</svg>
